<svg width="20" height="20" viewBox="0 0 20 20" fill="none" xmlns="http://www.w3.org/2000/svg">
<path d="M5.83366 6.66699H3.33366C2.41699 6.66699 1.66699 5.91699 1.66699 5.00033V3.33366C1.66699 2.41699 2.41699 1.66699 3.33366 1.66699H5.83366C6.75033 1.66699 7.50033 2.41699 7.50033 3.33366V5.00033C7.50033 5.91699 6.75033 6.66699 5.83366 6.66699Z" fill="#94BA2C"/>
<path d="M17.333 5.83333H14.333C13.783 5.83333 13.333 5.38332 13.333 4.83332V3.50001C13.333 2.95001 13.783 2.5 14.333 2.5H17.333C17.883 2.5 18.333 2.95001 18.333 3.50001V4.83332C18.333 5.38332 17.883 5.83333 17.333 5.83333Z" fill="#94BA2C"/>
<path d="M17.333 12.0833H14.333C13.783 12.0833 13.333 11.6333 13.333 11.0833V9.75001C13.333 9.20001 13.783 8.75 14.333 8.75H17.333C17.883 8.75 18.333 9.20001 18.333 9.75001V11.0833C18.333 11.6333 17.883 12.0833 17.333 12.0833Z" fill="#94BA2C"/>
<path opacity="0.37" d="M13.3333 11.042C13.675 11.042 13.9583 10.7587 13.9583 10.417C13.9583 10.0753 13.675 9.79199 13.3333 9.79199H11.0417V4.79199H13.3333C13.675 4.79199 13.9583 4.50866 13.9583 4.16699C13.9583 3.82533 13.675 3.54199 13.3333 3.54199H7.5C7.15833 3.54199 6.875 3.82533 6.875 4.16699C6.875 4.50866 7.15833 4.79199 7.5 4.79199H9.79167V15.0003C9.79167 16.267 10.8167 17.292 12.0833 17.292H13.3333C13.675 17.292 13.9583 17.0087 13.9583 16.667C13.9583 16.3253 13.675 16.042 13.3333 16.042H12.0833C11.5083 16.042 11.0417 15.5753 11.0417 15.0003V11.042H13.3333Z" fill="#94BA2C"/>
<path d="M17.333 18.3333H14.333C13.783 18.3333 13.333 17.8833 13.333 17.3333V16C13.333 15.45 13.783 15 14.333 15H17.333C17.883 15 18.333 15.45 18.333 16V17.3333C18.333 17.8833 17.883 18.3333 17.333 18.3333Z" fill="#94BA2C"/>
</svg>
